<svg width="300" height="307" viewBox="0 0 300 307" fill="none" xmlns="http://www.w3.org/2000/svg">
<rect width="300" height="307" fill="white"/>
<path d="M135.811 172.992C135.305 173.339 134.971 172.981 134.635 172.696C133.504 171.727 132.398 170.729 131.249 169.783C130.851 169.456 130.822 169.086 130.779 168.621C130.564 166.187 129.384 164.339 127.174 163.237C125.065 162.19 122.953 162.302 121.021 163.646C119.05 165.014 118.204 167.027 118.495 169.353C118.826 172.003 120.459 173.722 123.029 174.444C125.244 175.065 127.237 174.519 128.909 172.941C129.313 172.56 129.678 172.313 130.141 172.776C132.096 174.724 134.319 176.361 136.413 178.149C136.489 178.216 136.516 178.338 136.563 178.432C136.429 178.944 135.965 179.086 135.6 179.318C133.616 180.569 131.621 181.803 129.639 183.059C129.463 183.187 129.257 183.27 129.04 183.301C128.823 183.331 128.602 183.307 128.397 183.232C126.133 182.531 124.008 183.807 123.473 186.131C123.038 188.017 124.595 190.095 126.72 190.458C128.656 190.792 130.835 188.948 130.844 186.839C130.849 185.998 131.144 185.539 131.834 185.169C134.165 183.918 136.482 182.642 138.805 181.375C139.268 181.124 139.658 180.932 140.209 181.375C144.356 184.733 148.825 187.63 153.413 190.342C154.197 190.81 154.474 191.322 154.466 192.204C154.43 196.434 154.477 200.665 154.432 204.896C154.423 205.866 154.719 206.232 155.708 206.174C156.823 206.107 157.947 206.138 159.067 206.185C159.891 206.22 160.18 205.895 160.171 205.078C160.14 201.923 160.153 198.77 160.16 195.615C160.16 195.181 160.066 194.722 160.323 194.343C160.518 194.194 160.704 194.216 160.874 194.299C163.046 195.381 165.297 196.274 167.547 197.171C168.033 197.365 168.315 197.683 168.552 198.14C170.382 201.645 173.96 202.204 176.741 199.425C177.088 199.075 177.402 198.75 177.977 198.821C182.097 199.333 186.238 199.347 190.378 199.269C191.383 199.251 192.124 199.447 192.492 200.458C192.563 200.658 192.707 200.899 192.884 200.988C194.567 201.834 194.404 203.368 194.305 204.833C194.236 205.858 194.588 206.241 195.627 206.174C196.701 206.102 197.794 206.096 198.871 206.178C199.984 206.263 200.349 205.806 200.23 204.764C200.174 204.288 200.239 203.8 200.219 203.317C200.161 201.936 200.253 200.636 201.081 199.398C201.86 198.231 201.762 196.882 200.985 195.715C200.51 195.002 200.589 194.479 201.014 193.809C204.156 188.85 207.508 184.025 210.499 178.97C211.803 176.766 213.262 174.651 214.631 172.484C215.087 171.758 215.618 171.402 216.482 171.823C216.744 171.947 217.053 171.994 217.347 172.037C219.158 172.297 219.161 172.295 219.161 174.163C219.161 184.33 219.154 194.499 219.154 204.668C219.154 206.138 219.161 206.131 220.627 206.169C220.999 206.178 221.38 206.192 221.736 206.278C222.611 206.488 223.249 206.98 223.236 207.953C223.222 208.959 222.703 209.641 221.677 209.837C221.207 209.926 220.715 209.957 220.233 209.957C173.136 209.964 126.041 209.964 78.9439 209.964C78.1983 209.964 77.4436 210.037 76.7204 209.808C75.8583 209.532 75.2962 208.973 75.2962 208.033C75.2962 207.076 75.8874 206.528 76.7674 206.325C77.3048 206.203 77.8758 206.176 78.4334 206.176C88.9934 206.16 99.5558 206.154 110.118 206.151C111.58 206.151 111.596 206.156 111.596 204.662C111.596 190.3 111.594 175.938 111.603 161.576C111.603 160.689 111.661 159.794 111.786 158.917C111.979 157.554 112.908 156.688 114.29 156.681C120.521 156.655 126.755 156.65 132.987 156.686C134.673 156.695 135.652 157.77 135.661 159.463C135.674 163.061 135.656 166.661 135.672 170.262C135.674 171.112 135.757 171.961 135.804 172.905C135.804 172.998 135.811 172.994 135.811 172.994V172.992ZM148.305 144.524C145.847 144.526 143.496 144.504 141.144 144.542C140.278 144.555 139.953 144.243 139.978 143.37C140.027 141.553 139.908 139.73 140.023 137.917C140.161 135.686 139.225 134.047 137.51 132.762C135.298 131.106 133.175 129.356 131.507 127.129C127.537 121.836 125.687 115.935 126.294 109.309C127.136 100.124 131.776 93.4171 139.92 89.2443C152.157 82.974 166.954 87.9239 173.111 100.155C177.899 109.665 175.989 121.72 168.481 129.222C167.245 130.456 165.868 131.542 164.45 132.573C162.692 133.854 161.644 135.452 161.81 137.761C161.942 139.607 161.79 141.471 161.841 143.326C161.868 144.268 161.485 144.555 160.587 144.539C158.313 144.49 156.037 144.49 153.762 144.539C152.683 144.568 152.336 144.181 152.34 143.123C152.374 136.22 152.358 129.32 152.358 122.42C152.358 121.195 152.383 119.97 152.345 118.746C152.323 117.962 152.609 117.579 153.429 117.561C154.587 117.544 155.731 117.302 156.797 116.848C160.111 115.423 161.582 111.631 159.88 108.859C158.102 105.96 154.215 105.584 151.812 108.08C151.584 108.318 151.371 108.572 151.174 108.795C150.762 108.781 150.643 108.472 150.455 108.256C148.567 106.078 145.641 105.826 143.482 107.654C141.445 109.38 141.198 112.575 142.913 114.668C144.23 116.276 145.941 117.142 147.963 117.483C148.469 117.568 148.97 117.681 149.501 117.786C149.521 118.086 149.546 118.305 149.546 118.521C149.546 126.759 149.533 134.996 149.548 143.232C149.55 144.063 149.425 144.642 148.305 144.524ZM131.639 105.497C130.139 110.427 130.352 115.223 132.642 119.975C133.287 119.618 133.76 119.316 134.263 119.088C134.987 118.763 135.105 118.354 134.816 117.594C131.789 109.676 135.159 100.545 142.604 96.412C145.007 95.0804 147.549 94.163 150.325 94.0072C151.31 93.9515 151.714 93.4104 151.649 92.4685C151.584 91.5066 150.981 91.2439 150.119 91.2528C148.589 91.2609 147.068 91.4912 145.605 91.9364C138.702 94.0695 134.151 98.6253 131.639 105.497Z" fill="black"/>
<path d="M166.922 168.247C169.685 168.278 172.296 168.714 174.925 169.006C175.566 169.077 175.964 169.34 176.233 169.997C176.815 171.418 178.443 172.342 179.809 172.175C181.564 171.956 182.877 170.823 183.197 169.24C183.521 167.637 182.751 166.065 181.231 165.227C179.842 164.461 178.163 164.628 177.008 165.795C176.437 166.374 175.951 166.414 175.23 166.176C173.955 165.762 172.66 165.408 171.351 165.116C170.606 164.947 170.277 164.604 170.277 163.833C170.29 156.263 170.274 148.694 170.299 141.126C170.306 139.436 171.338 138.432 173.055 138.425C179.213 138.403 185.369 138.403 191.524 138.436C193.432 138.447 194.296 139.467 194.301 141.567C194.31 153.477 194.312 165.388 194.314 177.298C194.317 181.974 194.299 186.648 194.328 191.322C194.332 192.123 194.182 192.729 193.454 193.203C192.695 193.7 192.147 194.458 191.916 195.332C191.793 195.777 191.625 196.018 191.101 196.051C187.035 196.314 182.977 196.14 178.92 195.864C178.219 195.817 177.914 195.564 177.794 194.813C177.5 192.976 175.89 191.495 173.888 191.155C171.92 190.819 170.189 191.4 169.074 193.045C168.478 193.925 168.04 193.896 167.204 193.542C165.178 192.685 163.136 191.881 161.174 190.876C160.46 190.511 160.131 190.073 160.137 189.24C160.175 183.491 160.167 177.739 160.184 171.988C160.184 171.509 160.261 171.028 160.341 170.554C160.587 169.044 161.452 168.289 163.006 168.256C164.273 168.227 165.543 168.249 166.922 168.247ZM184.941 150.244C185.702 148.481 185.337 146.906 183.92 145.813C182.711 144.878 181.188 144.833 179.878 145.686C178.595 146.523 178.015 147.988 178.407 149.427C178.77 150.756 179.641 151.645 180.971 151.936C182.57 152.284 183.891 151.725 184.941 150.244Z" fill="black"/>
<path d="M204.382 182.84C203.061 184.689 202.073 186.677 200.537 188.423C200.112 187.821 200.244 187.329 200.242 186.873C200.237 168.993 200.242 151.11 200.242 133.228C200.239 131.424 200.226 131.424 198.379 131.426C196.885 131.426 195.394 131.433 193.9 131.426C193.423 131.426 192.861 131.502 192.695 130.885C192.53 130.271 193.067 130.062 193.466 129.81C200.551 125.339 207.64 120.874 214.722 116.399C217.239 114.809 219.743 113.192 222.246 111.582C222.891 111.168 223.536 110.79 224.322 111.199C225.112 111.609 224.994 112.362 224.994 113.059C224.998 122.186 224.998 131.311 224.998 140.438C224.998 140.66 224.991 140.883 224.994 141.106C225 141.587 224.862 142.019 224.382 142.192C223.829 142.395 223.565 141.943 223.334 141.576C222.269 139.877 221.227 138.162 220.17 136.459C219.92 136.053 219.651 135.659 219.317 135.152C219.044 135.646 219.136 136.049 219.138 136.43C219.138 143.479 219.131 150.527 219.176 157.577C219.183 158.616 218.869 158.979 217.799 159.037C213.455 159.271 210.593 164.248 212.562 168.155C212.96 168.948 212.866 169.46 212.416 170.159C209.725 174.346 207.085 178.565 204.382 182.84ZM109.449 130.607C110.196 131.121 110.266 131.698 109.823 132.373C109.802 132.404 109.793 132.442 109.769 132.469C107.892 134.615 108.75 136.552 110.21 138.463C110.47 138.803 110.714 139.068 111.186 139.093C111.706 139.12 112.216 139.253 112.738 139.291C115.647 139.494 115.044 139.436 115.456 142.017C115.862 144.555 115.62 147.111 115.257 149.654C115.145 150.442 114.791 150.816 113.947 150.819C113.018 150.821 112.093 150.97 111.164 151.023C110.752 151.046 110.461 151.193 110.248 151.547C109.753 152.375 109.245 153.196 108.725 154.009C108.475 154.406 108.515 154.771 108.705 155.167C109.046 155.866 109.294 156.626 109.722 157.267C110.369 158.227 110.076 158.864 109.276 159.536C106.891 161.549 104.227 163.076 101.347 164.261C100.684 164.535 100.214 164.404 99.8155 163.811C99.5065 163.348 99.0587 162.967 98.8079 162.482C98.0801 161.079 97.0613 160.567 95.4088 160.685C94.1929 160.774 93.5502 161.246 92.8874 162.132C90.8184 164.887 91.5349 165.034 87.9097 163.439C85.6727 162.457 83.747 160.994 81.9691 159.327C81.3645 158.759 81.2592 158.253 81.7563 157.612C81.8011 157.552 81.8213 157.474 81.8683 157.416C83.3798 155.568 83.373 153.782 81.7787 151.943C81.3242 151.422 80.9413 151.041 80.2359 151.052C79.3783 151.068 78.5185 151.03 77.6631 151.075C77.1033 151.108 76.8458 150.892 76.7383 150.369C76.0732 147.104 75.8829 143.838 76.6107 140.554C76.7226 140.041 76.9712 139.776 77.4951 139.727C77.7907 139.699 78.0773 139.594 78.3684 139.549C81.4742 139.095 81.463 139.093 82.7617 136.292C82.97 135.842 82.8446 135.512 82.6364 135.154C82.1728 134.348 81.7452 133.52 81.2301 132.749C80.8159 132.13 80.9278 131.683 81.4317 131.197C83.6048 129.102 86.1231 127.392 88.877 126.143C89.5421 125.837 90.0257 126.027 90.4601 126.521C91.1453 127.305 91.8462 128.075 92.5 128.881C92.8695 129.336 93.2614 129.556 93.8525 129.387C94.1019 129.305 94.3668 129.28 94.6273 129.313C96.6202 129.692 97.7443 128.701 98.734 127.096C99.8558 125.27 100.062 125.31 102.117 126.053C104.858 127.044 107.203 128.672 109.446 130.607M89.5913 139.632C87.482 142.29 87.0588 145.176 88.4426 148.285C90.2116 152.259 94.69 154.112 98.94 152.653C102.87 151.304 105.176 147.073 104.182 143.012C103.396 139.799 101.343 137.701 98.1809 136.875C94.8781 136.011 92.0007 136.958 89.5913 139.632ZM100.304 196.922C99.8133 197.726 99.2781 197.79 98.6108 197.247C98.2973 196.991 97.8585 196.86 97.5965 196.563C96.5239 195.352 95.3707 195.837 94.1929 196.316C94.0163 196.374 93.8603 196.482 93.7439 196.626C93.6275 196.77 93.5555 196.945 93.5368 197.129C93.436 197.75 93.1852 198.36 93.1718 198.977C93.1427 200.28 92.4687 200.518 91.2976 200.482C88.7091 200.4 88.7068 200.458 88.2344 197.884C87.9343 196.254 85.9459 195.372 84.477 196.22C83.9284 196.537 83.3484 196.817 82.8558 197.207C82.2288 197.703 81.8056 197.646 81.2615 197.047C79.2843 194.869 79.2126 194.844 81.0443 192.54C81.7765 191.62 81.1585 190.966 80.9614 190.195C80.7711 189.447 80.1553 189.567 79.6089 189.527C76.8413 189.333 76.8413 189.331 76.8547 186.543C76.8637 184.922 76.8637 184.922 78.5117 184.642C78.7692 184.597 79.0268 184.559 79.2843 184.522C79.8485 184.444 80.6099 184.677 80.8159 183.929C81.0644 183.027 81.6399 182.172 80.733 181.155C79.0715 179.291 79.1477 179.22 80.733 177.334C80.9973 177.022 81.2794 176.726 81.5503 176.421C81.9109 176.011 82.305 175.996 82.7371 176.305C82.9163 176.436 83.1424 176.521 83.288 176.679C84.5912 178.109 85.9593 177.597 87.3745 176.88C87.941 176.595 87.997 176.109 88.1157 175.604C88.7359 172.994 88.7427 173.032 91.4476 172.78C92.5224 172.68 93.089 172.998 93.1315 174.103C93.136 174.286 93.2479 174.466 93.2435 174.646C93.2054 176.192 93.9757 177.06 95.4356 177.523C95.991 177.701 96.3582 177.728 96.8643 177.423C99.5065 175.837 99.4908 175.873 101.522 178.209C102.095 178.868 102.209 179.376 101.542 179.988C101.296 180.211 101.108 180.496 100.893 180.752C99.914 181.898 99.8625 182.771 100.657 184.049C100.893 184.428 101.217 184.481 101.602 184.51C102.084 184.548 102.563 184.633 103.044 184.684C103.486 184.731 103.929 184.762 104.516 184.811V188.697C104.511 189.102 104.287 189.291 103.889 189.327C103.293 189.38 102.702 189.454 102.111 189.52C101.49 189.592 100.825 189.536 100.523 190.295C100.192 191.13 99.9409 191.821 100.68 192.707C102.288 194.628 102.214 194.689 100.577 196.61L100.304 196.922ZM90.5161 181.981C87.8873 182.319 86.1452 184.346 86.3333 186.846C86.5191 189.322 88.5165 191.095 90.9841 190.974C93.2479 190.863 95.1602 188.864 95.196 186.57C95.2341 184.103 93.277 182.103 90.5161 181.983V181.981ZM203.401 100.275C204.543 99.9413 205.264 100.531 205.922 101.21C206.397 101.7 206.034 102.188 205.792 102.636C205.295 103.562 204.912 104.41 205.423 105.548C205.781 106.347 206.169 106.717 207.008 106.808C208.558 106.975 208.845 107.269 208.869 108.481C208.901 110.017 208.542 110.438 206.993 110.685C205.239 110.97 204.671 112.037 205.383 113.644C205.645 114.234 206.117 114.802 205.831 115.526C205.365 116.706 204.118 117.133 203 116.49C202.709 116.323 202.44 116.12 202.156 115.944C201.292 115.408 200.259 115.751 199.917 116.679C199.225 118.572 199.225 118.527 197.364 118.538C196.401 118.545 195.918 118.176 195.736 117.258C195.615 116.652 195.485 116.08 194.74 115.786C194.144 115.55 193.788 115.528 193.264 115.949C191.981 116.973 191.278 116.906 190.235 115.92C189.578 115.301 189.368 114.686 189.926 113.874C190.447 113.121 190.752 112.348 190.149 111.418C189.767 110.827 189.411 110.493 188.667 110.482C187.317 110.462 186.838 110.024 186.782 108.957C186.692 107.176 186.945 106.828 188.51 106.595C190.176 106.343 190.987 104.738 190.235 103.188C189.384 101.438 189.659 100.665 191.262 100.035C192.127 99.6941 192.695 100.146 193.273 100.618C193.712 100.977 194.079 101.331 194.751 101.032C195.416 100.736 195.716 100.333 195.759 99.6073C195.803 98.8502 195.978 98.1466 197.013 98.0887C199.144 97.9729 199.424 98.0152 199.657 99.3979C199.841 100.485 200.403 101.023 201.397 101.242C202.272 101.433 202.615 100.489 203.401 100.273M196.164 105.74C194.673 106.926 194.256 108.365 194.982 109.821C195.584 111.032 197.187 111.865 198.414 111.591C199.778 111.286 200.665 110.482 200.967 109.104C201.236 107.897 200.792 106.895 199.912 106.12C198.844 105.185 197.624 104.925 196.164 105.74ZM92.0544 111.001C90.805 110.411 91.0781 109.353 91.1543 108.436C91.2282 107.554 92.0724 107.314 92.7419 107.314C93.9354 107.312 94.2466 106.474 94.7706 105.706C95.2923 104.94 95.7245 104.319 95.2341 103.319C94.8422 102.526 94.6743 101.602 95.7581 101.012C97.0613 100.304 97.6435 100.344 98.622 101.331C99.7371 102.455 102.138 102.649 103.414 101.683C104.22 101.072 104.946 100.58 106.007 101.282C107.265 102.114 107.427 102.253 106.952 103.704C106.683 104.528 106.757 105.127 107.212 105.935C107.852 107.071 108.439 107.928 109.892 107.973C110.664 107.997 110.832 108.692 110.797 109.391C110.754 110.22 111.016 111.411 109.861 111.455C107.863 111.536 107.532 113.266 106.533 114.328C106.052 114.84 106.533 115.47 106.629 116.025C106.9 117.614 106.647 118.046 105.138 118.616C104.359 118.91 103.848 118.668 103.398 118.08C102.794 117.289 102.149 116.708 100.987 116.926C100.089 117.096 99.1214 116.617 98.2772 117.463C97.7129 118.031 96.918 118.363 96.0245 117.915C94.8445 117.325 94.4705 116.621 94.9856 115.401C95.3438 114.555 95.3953 113.871 94.6788 113.232C94.622 113.182 94.5815 113.116 94.5623 113.043C94.2824 111.74 93.3509 111.222 92.0544 111.001ZM103.201 111.05C104.034 109.632 103.846 108.463 102.619 107.43C101.513 106.499 100.407 106.499 99.3117 107.43C98.2727 108.316 98.0062 109.685 98.6534 110.814C99.5804 112.433 101.529 112.593 103.201 111.05ZM146.404 165.112C145.531 163.381 144.662 161.854 142.363 161.972C141.671 162.005 141.019 161.369 140.65 160.672C140.276 159.966 140.533 159.536 141.286 159.376C141.536 159.324 141.805 159.347 142.065 159.347C147.916 159.345 153.769 159.34 159.62 159.347C160.229 159.349 161.011 159.173 161.21 160.001C161.407 160.812 160.816 161.304 160.189 161.68C159.475 162.11 158.691 162.382 157.851 162.315C157.009 162.248 156.546 162.564 156.286 163.37C155.838 164.766 154.925 165.84 153.662 166.577C151.205 168.013 148.469 167.467 146.407 165.112H146.404ZM135.802 173.001C141.127 172.983 146.454 172.943 151.783 172.956C153.095 172.956 153.948 173.682 154.266 174.954C154.584 176.223 154.839 177.697 154.248 178.754C153.778 179.596 152.32 179.044 151.308 179.059C148.478 179.1 145.652 178.884 142.831 178.672C142.422 178.652 142.03 178.504 141.711 178.249C139.906 176.815 138.09 175.394 136.279 173.969C136.014 173.76 135.741 173.557 135.802 173.076C135.811 172.992 135.804 172.998 135.802 173.001ZM158.415 150.52C152.974 150.52 147.645 150.525 142.316 150.52C141.87 150.518 141.406 150.52 140.986 150.402C140.242 150.193 139.767 149.705 139.772 148.875C139.774 148.029 140.291 147.597 141.048 147.423C141.406 147.34 141.787 147.336 142.159 147.336C148.01 147.336 153.863 147.338 159.714 147.352C160.16 147.352 160.619 147.365 161.042 147.481C161.788 147.686 162.3 148.171 162.274 148.995C162.247 149.866 161.669 150.362 160.87 150.473C160.102 150.583 159.309 150.514 158.415 150.52ZM159.927 156.539C154.152 156.523 148.482 156.517 142.813 156.499C142.179 156.503 141.545 156.459 140.918 156.365C140.206 156.254 139.832 155.76 139.776 155.051C139.714 154.29 140.029 153.729 140.775 153.515C141.206 153.405 141.651 153.354 142.096 153.364C148.066 153.353 154.033 153.355 160.003 153.346C160.82 153.346 161.593 153.442 162.025 154.243C162.668 155.434 161.734 156.501 159.927 156.537V156.539ZM128.84 222.831C128.285 222.816 128.504 223.21 128.497 223.437C128.471 224.435 128.475 225.434 128.491 226.434C128.504 227.28 128.092 227.637 127.259 227.637C126.469 227.641 126.099 227.28 126.088 226.501C126.052 224.096 125.987 221.689 125.976 219.284C125.972 218.632 125.954 217.895 126.778 217.619C127.609 217.343 128.112 217.859 128.571 218.42C129.765 219.883 130.949 221.351 132.255 222.963C132.512 221.698 132.362 220.605 132.382 219.525C132.409 217.955 132.613 217.67 133.755 217.663C135.211 217.652 134.928 218.717 134.94 219.556C134.967 221.705 134.955 223.854 134.953 226C134.953 226.637 134.982 227.336 134.21 227.563C133.48 227.779 132.824 227.592 132.313 226.971C131.167 225.582 130.01 224.201 128.842 222.829L128.84 222.831ZM187.344 226.167C187.075 225.755 186.873 225.397 186.627 225.076C186.217 224.542 185.622 224.613 185.087 224.749C184.551 224.884 184.706 225.403 184.697 225.788C184.677 226.675 184.869 227.661 183.448 227.63C182.722 227.614 182.283 227.307 182.265 226.597C182.2 223.931 182.158 221.264 182.144 218.599C182.14 217.997 182.503 217.663 183.156 217.67C184.607 217.688 186.067 217.601 187.514 217.715C189.003 217.826 190.118 218.603 190.548 220.102C190.951 221.502 190.879 222.84 189.608 223.82C189.133 224.185 189.151 224.499 189.451 224.938C189.809 225.457 190.138 225.996 190.465 226.534C190.859 227.185 190.573 227.474 189.905 227.597C188.687 227.817 187.901 227.285 187.344 226.167ZM188.307 221.046C187.818 220.197 185.814 219.658 185.008 220.159C184.585 220.422 184.551 222.003 184.963 222.275C185.846 222.86 187.935 222.195 188.307 221.046ZM181.694 96.4365C180.037 97.1601 179.03 96.9263 178.483 95.7462C177.944 94.5772 178.414 93.4817 179.795 92.7535C182.89 91.1236 185.987 89.5004 189.088 87.8838C190.488 87.1557 191.703 87.3917 192.299 88.4806C192.926 89.6273 192.521 90.8809 191.112 91.6224C188.022 93.2545 184.887 94.811 181.694 96.4365ZM106.186 225.735C106.186 223.442 106.204 221.255 106.175 219.071C106.161 218.102 106.52 217.612 107.55 217.663C108.405 217.706 109.263 217.663 110.12 217.674C113.045 217.719 115.125 219.589 115.174 222.506C115.219 225.06 114.026 227.196 110.658 227.568C109.554 227.69 108.425 227.628 107.31 227.605C106.081 227.579 106.184 226.666 106.186 225.735ZM109.672 225.212C109.894 225.201 110.12 225.218 110.335 225.174C111.936 224.84 112.554 224.034 112.447 222.442C112.355 221.066 111.43 220.182 109.957 220.097C109.372 220.064 108.792 220.115 108.788 220.919C108.781 222.139 108.792 223.361 108.786 224.582C108.784 225.089 109.095 225.201 109.672 225.212ZM113.99 93.1722C112.863 92.5776 111.795 92.0499 110.761 91.4643C109.531 90.7651 109.088 89.4892 109.664 88.4694C110.273 87.3873 111.495 87.0622 112.769 87.7257C115.938 89.3735 119.095 91.0412 122.241 92.7313C123.54 93.4305 123.954 94.5928 123.374 95.6928C122.792 96.7994 121.507 97.1 120.195 96.4164C118.148 95.3543 116.108 94.2788 113.992 93.1722H113.99ZM173.398 218.859C173.655 217.886 174.24 217.55 175.153 217.534C176.049 217.519 176.625 217.817 176.985 218.656C178.053 221.144 179.166 223.611 180.252 226.091C180.481 226.612 180.707 227.274 180.039 227.536C179.412 227.781 178.445 227.937 178.152 227.14C177.614 225.686 176.535 225.751 175.362 225.813C174.916 225.835 174.466 225.842 174.02 225.811C173.418 225.766 173.035 225.996 172.802 226.554C172.63 226.966 172.406 227.412 171.942 227.525C171.376 227.663 170.724 227.824 170.229 227.403C169.728 226.973 170.064 226.405 170.256 225.956C171.268 223.606 172.325 221.275 173.398 218.859ZM175.908 222.313C175.707 221.988 175.702 221.522 175.196 221.34C174.733 221.992 174.347 222.669 174.164 223.52C174.824 223.753 175.454 223.809 176.004 223.457C176.416 223.19 176.027 222.794 175.908 222.313ZM120.123 220.146C119.518 220.313 119.42 220.685 119.554 221.126C119.677 221.536 120.069 221.495 120.396 221.504C121.068 221.518 121.74 221.504 122.411 221.524C123.17 221.549 123.589 221.93 123.558 222.716C123.526 223.471 123.168 223.882 122.362 223.847C121.878 223.825 121.39 223.802 120.911 223.856C120.356 223.914 119.471 223.522 119.503 224.579C119.534 225.622 120.416 225.203 120.963 225.252C121.666 225.316 122.378 225.274 123.088 225.274C123.887 225.274 124.404 225.653 124.404 226.454C124.404 227.271 123.862 227.619 123.074 227.619L118.04 227.605C117.252 227.605 116.905 227.222 116.912 226.432C116.93 223.871 116.925 221.315 116.912 218.757C116.907 218.017 117.203 217.67 117.973 217.677C119.688 217.695 121.404 217.672 123.119 217.668C123.885 217.663 124.167 218.151 124.218 218.803C124.274 219.496 123.95 219.981 123.231 220.033C122.228 220.104 121.22 220.099 120.123 220.146ZM129.984 82.3617C128.502 80.3176 127.062 78.3403 125.64 76.3519C124.706 75.047 124.805 73.9159 125.887 73.1454C126.995 72.3594 128.224 72.6444 129.131 73.927C130.908 76.4374 132.673 78.9558 134.427 81.4821C134.92 82.1924 135.119 82.9606 134.548 83.7489C133.999 84.5082 133.289 84.8533 132.331 84.7063C131.809 84.624 131.44 84.3412 131.14 83.9582C130.75 83.4616 130.401 82.9384 129.984 82.3617ZM209.774 226.759C206.908 228.63 203.334 227.605 202.64 224.66C202.156 222.604 202.454 220.458 202.514 218.356C202.534 217.666 203.208 217.536 203.784 217.548C204.512 217.559 205 217.948 205.024 218.703C205.065 219.886 205.047 221.07 205.054 222.255C205.058 222.662 205.031 223.076 205.089 223.475C205.233 224.455 206.119 225.25 206.977 225.214C207.906 225.176 208.668 224.428 208.708 223.361C208.764 221.883 208.753 220.4 208.724 218.919C208.708 218.051 209.082 217.579 209.948 217.548C210.777 217.519 211.202 218.011 211.227 218.777C211.285 220.551 211.35 222.328 211.187 224.101C211.093 225.141 210.6 225.998 209.776 226.759H209.774ZM103.985 218.071C104.451 220.387 104.504 222.651 104.043 224.867C103.674 226.639 101.611 227.895 99.7439 227.761C97.3927 227.592 95.982 226.441 95.6461 224.381C95.3416 222.502 95.5095 220.607 95.5274 218.719C95.5342 217.784 96.1791 217.545 96.974 217.581C97.7577 217.617 98.0667 218.066 98.0555 218.832C98.0331 220.28 98.0219 221.727 98.0734 223.174C98.1025 223.978 98.3936 224.689 99.2177 225.067C99.8401 225.354 100.389 225.205 100.902 224.847C101.502 224.426 101.699 223.805 101.696 223.099C101.696 221.801 101.692 220.5 101.701 219.202C101.714 217.63 102.496 217.209 103.985 218.071ZM170.673 77.1958C171.575 75.9644 172.397 74.7709 173.299 73.642C174.15 72.5754 175.256 72.4396 176.219 73.1811C177.137 73.8825 177.27 74.9246 176.495 76.0312C174.665 78.646 172.815 81.2461 170.944 83.8313C170.236 84.811 168.971 85.0559 168.08 84.4659C167.856 84.3145 167.664 84.1207 167.516 83.8956C167.367 83.6704 167.265 83.4183 167.214 83.1537C167.164 82.8892 167.167 82.6173 167.222 82.3538C167.278 82.0902 167.385 81.8402 167.538 81.6179C168.51 80.1305 169.591 78.7099 170.673 77.1958ZM125.237 145.394C124.928 143.702 123.898 142.8 122.382 142.353C122.062 142.257 121.728 142.175 121.437 142.019C120.676 141.607 120.654 140.79 121.392 140.349C121.677 140.182 122.004 140.062 122.326 139.984C123.965 139.587 124.834 138.496 125.199 136.922C125.34 136.298 125.486 135.619 126.292 135.575C127.111 135.53 127.313 136.185 127.479 136.813C127.918 138.489 128.889 139.625 130.643 140.05C131.202 140.186 131.863 140.358 131.832 141.153C131.8 141.963 131.135 142.15 130.524 142.299C128.878 142.7 127.848 143.662 127.506 145.341C127.382 145.956 127.261 146.619 126.393 146.628C125.609 146.635 125.428 146.067 125.237 145.394ZM148.944 78.2668C148.906 74.909 148.867 71.6491 148.841 68.3915C148.827 66.8306 149.539 65.9934 150.847 66C152.168 66.0067 152.894 66.8239 152.898 68.3536C152.905 71.5378 152.907 74.7242 152.896 77.9105C152.889 79.2131 152.195 80.0526 151.075 80.1817C150.023 80.3042 149.311 79.6963 148.944 78.2668ZM218.319 217.706C220.956 218.131 222.192 220.683 221.373 222.504C220.797 223.78 219.788 224.426 218.444 224.62C218.041 224.68 217.622 224.742 217.219 224.702C216.16 224.597 215.701 225.002 215.811 226.085C215.862 226.583 215.932 227.147 215.363 227.476C214.49 227.98 213.457 227.467 213.426 226.465C213.354 224.096 213.294 221.723 213.292 219.351C213.292 217.844 213.643 217.588 215.199 217.646C216.207 217.681 217.215 217.679 218.319 217.706ZM217.736 220.061C217.087 220.249 216.073 219.538 215.849 220.774C215.591 222.181 215.887 222.457 217.45 222.417C218.144 222.397 218.858 222.362 218.984 221.504C219.096 220.738 218.681 220.251 217.736 220.061ZM156.221 223.771C153.915 222.99 153.178 222.212 153.191 220.634C153.207 218.774 154.432 217.663 156.691 217.561C157.746 217.512 158.765 217.766 159.692 218.296C160.222 218.603 160.48 219.048 160.061 219.576C159.676 220.061 159.51 221.052 158.498 220.478C157.92 220.131 157.247 219.97 156.573 220.019C156.183 220.05 155.778 220.135 155.719 220.576C155.661 220.992 156.062 221.11 156.376 221.213C157.047 221.435 157.732 221.613 158.402 221.836C159.866 222.326 160.637 223.321 160.632 224.682C160.628 225.882 159.643 227.158 158.279 227.467C156.599 227.85 154.938 227.779 153.474 226.695C153.057 226.387 152.515 226.071 152.932 225.45C153.321 224.871 153.738 224.252 154.645 224.695C155.245 224.989 155.872 225.247 156.559 225.274C157.11 225.296 157.856 225.457 157.974 224.762C158.086 224.107 157.296 224.123 156.846 223.929C156.678 223.856 156.485 223.84 156.219 223.771H156.221ZM80.7487 225.114C81.3376 225.303 81.8526 225.354 82.3766 225.252C82.6834 225.192 82.9722 225.056 83.0193 224.722C83.073 224.35 82.7506 224.214 82.4729 224.116C81.7004 223.847 80.9054 223.635 80.1441 223.341C78.5968 222.74 77.887 221.769 77.9811 220.462C78.0751 219.153 79.0469 218.082 80.5114 217.686C81.9959 217.283 83.3865 217.563 84.6987 218.311C85.2405 218.623 85.4354 219.035 84.9494 219.572C84.5352 220.028 84.468 221.07 83.4156 220.413C82.811 220.037 82.1527 219.745 81.4115 219.879C81.0891 219.935 80.7241 220.059 80.6547 220.444C80.5785 220.881 80.9681 221.006 81.266 221.119C82.0676 221.418 82.8961 221.645 83.691 221.959C84.9674 222.466 85.6929 223.591 85.5943 224.927C85.5025 226.189 84.7076 226.96 83.5723 227.334C81.8123 227.915 80.1105 227.735 78.5789 226.635C78.1288 226.312 77.6273 225.933 78.1087 225.27C78.514 224.706 78.9372 224.179 79.7523 224.662C80.0389 224.833 80.3613 224.942 80.7487 225.114Z" fill="black"/>
<path d="M220.11 162.094C222.226 163.237 223.055 165.345 222.17 167.165C221.261 169.039 218.869 169.895 216.915 169.046C215.076 168.249 214.151 166.08 214.859 164.225C215.638 162.186 217.703 161.32 220.112 162.094H220.11ZM79.4656 108.541C80.48 107.957 80.939 107.102 81.1227 106.069C81.2301 105.457 81.4182 104.873 82.1706 104.833C82.9297 104.795 83.0528 105.421 83.167 105.958C83.5141 107.605 84.4098 108.697 86.1385 109.006C86.6916 109.104 87.1595 109.356 87.1864 109.979C87.211 110.634 86.6893 110.863 86.1721 110.986C84.4837 111.386 83.4044 112.339 83.1111 114.098C83.026 114.608 82.7349 114.978 82.1236 114.954C81.5056 114.929 81.248 114.499 81.1876 114.016C80.9749 112.308 79.9627 111.393 78.3572 110.99C77.7885 110.848 77.2735 110.6 77.2824 109.906C77.2891 109.238 77.8422 109.108 78.3393 108.941C78.6931 108.826 79.0424 108.701 79.4656 108.541ZM164.64 223.101V222.544C164.649 220.277 164.652 220.264 162.421 220.046C161.687 219.975 161.335 219.583 161.329 218.904C161.322 218.236 161.629 217.712 162.363 217.701C164.708 217.672 167.052 217.679 169.394 217.69C170.104 217.692 170.346 218.162 170.364 218.797C170.386 219.465 170.185 219.928 169.417 220.046C168.716 220.155 167.751 219.645 167.366 220.422C167.065 221.026 167.233 221.867 167.224 222.604C167.209 223.751 167.207 224.898 167.224 226.045C167.236 226.958 167.077 227.663 165.903 227.639C164.732 227.617 164.618 226.882 164.634 225.987C164.652 225.063 164.638 224.139 164.64 223.101ZM139.096 224.208C139.098 223.096 139.073 222.094 139.107 221.097C139.134 220.338 138.834 219.99 138.059 220.05C137.725 220.077 137.387 220.044 137.051 220.048C136.364 220.057 136.006 219.705 135.981 219.039C135.954 218.327 136.245 217.732 137.015 217.712C139.324 217.652 141.635 217.654 143.946 217.668C144.514 217.668 144.79 218.062 144.826 218.625C144.862 219.226 144.729 219.739 144.105 219.984C143.97 220.035 143.814 220.033 143.666 220.048C141.612 220.253 141.612 220.251 141.628 222.373C141.637 223.671 141.646 224.967 141.651 226.265C141.655 227.14 141.263 227.712 140.341 227.719C139.44 227.726 139.127 227.122 139.109 226.321C139.093 225.653 139.1 224.985 139.098 224.208H139.096ZM151.366 236.022C151.066 236.436 151.254 236.668 151.478 236.962C152.679 238.57 151.859 240.476 149.833 240.698C148.803 240.812 147.75 240.743 146.704 240.734C146.01 240.727 145.674 240.282 145.663 239.663C145.625 237.773 145.614 235.884 145.632 233.994C145.636 233.281 146.064 232.903 146.785 232.927C147.752 232.958 148.729 232.95 149.685 233.076C151.31 233.295 151.926 234.381 151.364 236.022M147.544 238.371C147.513 239.006 147.927 239.084 148.417 239.059C148.955 239.031 149.557 239.206 149.936 238.636C150.099 238.392 150.048 238.147 149.855 237.931C149.418 237.441 148.032 237.605 147.544 238.371ZM147.549 235.288C147.748 236.441 148.617 235.844 149.212 235.882C149.501 235.904 149.837 235.63 149.741 235.301C149.53 234.564 148.863 234.795 148.337 234.762C148.026 234.74 147.741 234.811 147.549 235.288ZM192.487 219.852C191.766 218.409 192.154 217.695 193.58 217.686C195.593 217.67 197.604 217.695 199.615 217.661C200.465 217.646 200.994 217.928 201.012 218.832C201.034 219.79 200.51 220.086 199.592 220.075C197.85 220.053 197.85 220.09 197.855 221.832C197.859 223.277 197.855 224.72 197.866 226.165C197.872 227.004 197.664 227.634 196.639 227.628C195.602 227.623 195.297 227.027 195.304 226.116C195.315 224.45 195.275 222.783 195.324 221.117C195.347 220.286 195.038 219.981 194.218 220.03C193.669 220.061 193.098 220.135 192.487 219.852ZM122.125 234.027C122.935 235.038 123.587 236.078 124.59 236.971C124.917 235.991 124.713 235.078 124.751 234.183C124.78 233.484 124.915 232.865 125.752 232.88C126.603 232.894 126.699 233.544 126.695 234.228C126.686 235.893 126.695 237.559 126.69 239.224C126.69 239.866 126.684 240.562 125.958 240.819C125.224 241.077 124.798 240.527 124.404 240.017C123.576 238.948 122.843 237.797 121.724 236.764V239.545C121.724 240.204 121.54 240.767 120.77 240.783C119.964 240.799 119.834 240.204 119.832 239.556C119.83 237.817 119.821 236.076 119.821 234.337C119.821 233.785 119.733 233.163 120.418 232.929C121.072 232.707 121.451 233.172 121.818 233.6C121.914 233.711 121.993 233.84 122.125 234.027ZM89.2577 217.67C90.6684 217.67 91.9716 217.686 93.2748 217.666C94.11 217.652 94.643 217.922 94.6698 218.846C94.6967 219.777 94.1996 220.055 93.3442 220.07C91.4812 220.104 91.5193 220.124 91.6335 222.039C91.7163 223.442 91.6894 224.851 91.7006 226.256C91.7051 227.136 91.3424 227.657 90.3638 227.628C89.4077 227.599 89.1815 227.015 89.1771 226.225C89.1726 224.595 89.1323 222.965 89.186 221.337C89.2196 220.391 88.9263 219.93 87.9231 220.053C87.632 220.086 87.3252 220.073 87.0319 220.026C86.3736 219.921 86.0691 219.474 86.0914 218.848C86.1138 218.198 86.3893 217.681 87.1416 217.654C87.8089 217.632 88.4807 217.663 89.2577 217.67ZM123.173 165.472C125.141 164.947 126.527 165.41 127.441 166.833C128.386 168.305 128.132 170.048 126.814 171.119C125.392 172.277 123.486 172.286 122.228 171.139C120.907 169.937 120.696 168.022 121.735 166.628C122.103 166.122 122.599 165.723 123.173 165.47V165.472ZM168.859 239.169C167.305 236.107 168.987 232.887 172.088 232.829C174.029 232.794 175.888 234.25 176.327 236.149C176.69 237.721 175.731 239.736 174.267 240.482C172.312 241.48 170.386 241.032 168.859 239.169ZM171.363 238.908C171.539 238.964 171.71 239.048 171.889 239.071C173.243 239.249 174.432 238.273 174.464 236.966C174.47 236.662 174.413 236.36 174.298 236.079C174.183 235.797 174.011 235.542 173.793 235.328C173.575 235.115 173.315 234.948 173.03 234.837C172.745 234.727 172.441 234.676 172.135 234.686C170.856 234.724 169.97 235.855 170.129 237.22C170.214 237.951 170.695 238.394 171.363 238.908ZM184.404 236.621C184.229 236.915 184.126 237.185 183.933 237.334C183.226 237.868 183.356 238.387 183.799 239.037C184.104 239.487 184.874 240.062 183.971 240.598C183.212 241.05 182.628 240.571 182.214 239.919C181.974 239.545 181.782 239.142 181.542 238.768C181.296 238.38 180.919 238.256 180.474 238.356C179.981 238.472 180.024 238.877 180.008 239.247C180.001 239.467 180.008 239.69 179.995 239.91C179.966 240.429 179.688 240.736 179.171 240.796C178.577 240.863 178.167 240.518 178.154 239.999C178.096 237.928 178.096 235.858 178.127 233.787C178.136 233.279 178.555 233.043 179.072 233.041C179.818 233.039 180.561 233.023 181.307 233.023C183.618 233.016 184.706 234.243 184.404 236.621ZM181.52 234.891C180.987 234.98 180.266 234.602 180.019 235.426C179.742 236.356 180.4 236.813 181.64 236.546C182.111 236.443 182.655 236.316 182.684 235.724C182.715 235.112 182.22 234.958 181.52 234.891ZM217.916 101.433C217.002 101.838 216.653 102.551 216.496 103.388C216.388 103.96 216.111 104.375 215.486 104.375C214.904 104.375 214.644 103.967 214.555 103.446C214.342 102.199 213.516 101.54 212.382 101.155C211.885 100.986 211.352 100.803 211.348 100.153C211.341 99.4336 211.939 99.2399 212.472 99.1218C213.63 98.868 214.275 98.1644 214.546 97.0577C214.687 96.4877 214.92 95.9511 215.611 95.9711C216.247 95.9867 216.442 96.4988 216.552 97.0377C216.787 98.1688 217.517 98.8457 218.594 99.1708C219.149 99.3401 219.678 99.4647 219.649 100.22C219.622 100.972 219.058 101.066 218.516 101.219C218.337 101.268 218.164 101.34 217.913 101.435L217.916 101.433ZM136.852 237.078C136.852 235.971 136.838 234.969 136.865 233.969C136.881 233.364 137.1 232.836 137.828 232.858C138.527 232.88 138.775 233.366 138.784 233.994C138.798 234.882 138.778 235.773 138.802 236.661C138.813 237.064 138.869 237.47 138.943 237.866C139.098 238.697 139.593 239.275 140.455 239.202C141.384 239.124 141.742 238.398 141.765 237.536C141.792 236.534 141.771 235.532 141.778 234.53C141.778 234.237 141.769 233.936 141.812 233.644C141.879 233.194 142.148 232.898 142.618 232.856C143.097 232.811 143.475 233.074 143.52 233.513C143.72 235.495 144.064 237.525 143.196 239.414C142.578 240.756 141.263 241.092 139.877 240.95C138.545 240.816 137.573 240.104 137.139 238.817C136.964 238.298 136.944 237.73 136.852 237.08V237.078ZM153.279 240.373C153.879 237.888 154.878 235.622 156.008 233.424C156.425 232.613 157.426 232.689 157.9 233.511C159.013 235.441 159.772 237.536 160.639 239.583C160.841 240.066 160.776 240.567 160.187 240.774C159.64 240.966 159.278 240.685 158.986 240.231C158.046 238.754 156.04 238.746 155.142 240.2C154.642 241.01 154.027 241.104 153.279 240.373ZM157.338 236.203C157.182 235.951 157.014 235.568 156.738 236.076C156.537 236.452 156.273 236.837 156.358 237.332C156.783 237.577 157.186 237.588 157.605 237.305C157.69 236.94 157.477 236.65 157.338 236.203ZM135.206 239.897C133.554 241.308 131.462 241.308 129.861 239.968C128.41 238.754 128.054 236.247 129.095 234.584C130.081 233.012 132.342 232.339 134.14 233.141C134.669 233.377 135.484 233.571 135.126 234.448C134.794 235.25 134.239 235.374 133.419 234.936C132.412 234.397 131.404 234.664 130.813 235.448C130.128 236.356 130.179 237.472 130.952 238.405C131.576 239.157 132.66 239.362 133.58 238.901C134.555 238.414 134.962 238.641 135.206 239.897ZM182.809 131.112C182.585 130.177 182.138 129.574 181.235 129.313C180.734 129.166 180.25 128.884 180.25 128.249C180.248 127.628 180.769 127.481 181.222 127.332C182.032 127.064 182.559 126.568 182.771 125.731C182.883 125.283 183.089 124.862 183.649 124.884C184.142 124.905 184.359 125.285 184.442 125.697C184.623 126.588 185.154 127.109 186.007 127.405C186.448 127.556 186.934 127.766 186.907 128.394C186.885 128.957 186.457 129.12 186.029 129.267C185.201 129.556 184.686 130.079 184.422 130.954C184.119 131.95 183.615 131.988 182.809 131.112ZM155.348 109.271C157.614 109.42 158.44 111.101 157.256 112.912C156.264 114.426 154.757 114.773 153.1 114.815C152.647 114.827 152.455 114.562 152.383 114.134C152.052 112.226 153.391 109.952 155.348 109.271ZM163.257 235.468C163.176 234.564 162.54 234.755 162.061 234.746C161.38 234.731 160.697 234.657 160.699 233.816C160.702 233.032 161.38 232.936 161.998 232.925C163.301 232.903 164.602 232.901 165.906 232.903C166.586 232.903 167.209 233.043 167.258 233.88C167.312 234.775 166.633 234.762 166.031 234.742C165.323 234.72 165.131 235.089 165.138 235.706C165.153 236.964 165.153 238.222 165.144 239.48C165.138 240.144 165.021 240.85 164.186 240.834C163.357 240.816 163.268 240.122 163.268 239.449C163.268 238.153 163.263 236.86 163.257 235.468ZM147.128 109.316C149.033 110.053 150.16 112.531 149.519 114.39C149.452 114.579 149.362 114.702 149.168 114.773C147.663 115.319 144.83 113.435 144.682 111.789C144.541 110.208 145.365 109.34 147.128 109.318V109.316ZM149.047 182.281C150.569 182.281 151.987 182.304 153.402 182.281C154.103 182.27 154.425 182.533 154.41 183.261C154.38 184.539 154.403 185.82 154.403 187.12C152.974 186.853 148.026 183.602 147.188 182.415C147.773 182.161 148.368 182.326 149.047 182.281ZM210.134 88.5852C209.442 88.8346 209.301 89.3957 209.111 89.9145C208.963 90.3242 208.742 90.6672 208.262 90.6827C207.774 90.6983 207.501 90.3376 207.389 89.9479C207.143 89.084 206.664 88.5273 205.754 88.3225C205.568 88.2831 205.402 88.1804 205.284 88.032C205.166 87.8836 205.103 87.6989 205.107 87.5097C205.092 86.9998 205.423 86.7638 205.835 86.648C206.708 86.4031 207.239 85.8753 207.461 84.9936C207.55 84.6306 207.761 84.2944 208.215 84.2855C208.733 84.2766 208.93 84.664 209.03 85.0648C209.216 85.7907 209.525 86.3563 210.327 86.579C210.82 86.717 211.359 86.9263 211.312 87.6055C211.263 88.269 210.694 88.367 210.134 88.5852ZM171.788 198.302C170.395 197.258 170.115 196.018 170.937 194.82C171.698 193.704 173.228 193.35 174.383 194.018C175.451 194.64 175.836 195.929 175.304 197.109C174.703 198.44 173.396 198.913 171.788 198.302ZM194.729 199.213C193.994 198.133 193.896 197.067 194.552 196.033C195.044 195.256 195.864 194.967 196.775 195.06C197.886 195.172 198.746 195.944 198.967 196.969C199.185 197.975 198.643 199.137 197.691 199.705C196.643 200.329 195.884 200.217 194.729 199.213ZM80.6748 167.835C79.8105 168.176 79.1208 168.556 78.9596 169.505C78.8924 169.892 78.6439 170.173 78.1938 170.191C78.0039 170.209 77.8139 170.155 77.6628 170.039C77.5117 169.924 77.4109 169.755 77.3809 169.567C77.2018 168.705 76.6756 168.22 75.8605 167.968C75.4933 167.853 75.1507 167.648 75.1283 167.222C75.1059 166.766 75.3925 166.432 75.8001 166.29C76.6353 166 77.2108 165.526 77.3832 164.606C77.4504 164.23 77.7235 163.945 78.1826 163.976C78.6237 164.007 78.8633 164.292 78.9529 164.673C79.1477 165.499 79.5955 166.027 80.4397 166.301C81.2951 166.581 81.4473 167.127 80.6748 167.835ZM93.9287 92.1434C94.0317 91.8963 94.0899 91.7204 94.1615 91.5489C94.3272 91.1593 94.5377 90.7918 95.0393 90.8275C95.467 90.8586 95.6931 91.1704 95.7961 91.5467C96.0089 92.3171 96.4142 92.8649 97.2427 93.0675C97.6301 93.1633 97.8473 93.4839 97.8607 93.9047C97.8719 94.3323 97.6592 94.6551 97.2606 94.7397C96.4701 94.9067 96.0469 95.3743 95.8633 96.1336C95.7558 96.5723 95.4379 96.8506 94.9721 96.835C94.5713 96.8217 94.2265 96.599 94.1257 96.2116C93.9175 95.41 93.4719 94.9201 92.6344 94.7576C92.4457 94.7293 92.2734 94.6347 92.1489 94.4908C92.0244 94.347 91.9559 94.1635 91.9559 93.9738C91.9408 93.7669 91.9983 93.5611 92.1188 93.3918C92.2393 93.2224 92.4152 93.0999 92.6165 93.0452C93.1203 92.8805 93.6107 92.7157 93.9287 92.1434ZM117.655 238.225C117.66 238.628 117.66 238.924 117.666 239.22C117.68 239.999 117.644 240.876 116.636 240.852C115.662 240.83 115.609 239.952 115.609 239.178C115.609 237.77 115.604 236.363 115.606 234.956C115.606 234.624 115.591 234.286 115.642 233.958C115.736 233.377 115.958 232.829 116.679 232.898C117.301 232.956 117.514 233.417 117.525 234.012C117.554 235.381 117.61 236.75 117.655 238.225ZM113.797 123.188C112.456 122.348 112.427 121.981 113.625 121.09C113.978 120.827 114.14 120.473 114.314 120.106C114.458 119.799 114.614 119.496 115.033 119.52C115.38 119.538 115.591 119.756 115.683 120.05C115.884 120.696 116.309 121.072 116.905 121.393C117.563 121.749 117.566 122.308 116.876 122.649C116.408 122.878 116.079 123.139 115.891 123.624C115.73 124.027 115.577 124.499 115.004 124.486C114.446 124.475 114.31 124.003 114.093 123.622C114.019 123.495 113.936 123.373 113.797 123.19V123.188ZM77.0854 128.042C76.1158 127.768 75.7687 126.882 75.1082 126.336C74.8596 126.131 75.0835 125.757 75.3366 125.584C75.7329 125.31 76.1427 125.065 76.3867 124.626C76.436 124.537 76.5435 124.446 76.6398 124.428C77.7056 124.237 77.7459 125.452 78.4759 125.784C78.8342 125.944 78.673 126.497 78.3416 126.719C77.8243 127.06 77.6407 127.663 77.0876 128.042H77.0854Z" fill="black"/>
</svg>
